<?xml version="1.0" encoding="utf-8"?>
<svg width="100%" height="100%" viewBox="0 0 1600 100" version="1.1" style="fill-rule:evenodd;clip-rule:evenodd;stroke-linejoin:round;stroke-miterlimit:2;" xmlns="http://www.w3.org/2000/svg">
  <path d="M 1600.002 10.001 C 1600.002 4.482 1595.522 0.001 1590.002 0.001 L 10 0.001 C 4.481 0.001 0 4.482 0 10.001 L 0 90.001 C 0 95.52 4.481 100.001 10 100.001 L 1590.002 100.001 C 1595.522 100.001 1600.002 95.52 1600.002 90.001 L 1600.002 10.001 Z" style="fill-opacity:0.7;"/>
  <path d="M 1600.002 10.001 L 1600.002 90.001 C 1600.002 95.52 1595.522 100.001 1590.002 100.001 L 10 100.001 C 4.481 100.001 0 95.52 0 90.001 L 0 10.001 C 0 4.482 4.481 0.001 10 0.001 L 1590.002 0.001 C 1595.522 0.001 1600.002 4.482 1600.002 10.001 Z M 1598.002 10.001 C 1598.002 5.586 1594.412 2.001 1590.002 2.001 L 10 2.001 C 5.585 2.001 2 5.586 2 10.001 L 2 90.001 C 2 94.416 5.585 98.001 10 98.001 L 1590.002 98.001 C 1594.412 98.001 1598.002 94.416 1598.002 90.001 L 1598.002 10.001 Z" style="fill:rgb(79,79,81);fill-opacity:0.31;"/>
  <path d="M 270 26.228 C 270 22.791 267.21 20.001 263.773 20.001 L 36.227 20.001 C 32.79 20.001 30 22.791 30 26.228 L 30 73.774 C 30 77.211 32.79 80.001 36.227 80.001 L 263.773 80.001 C 267.21 80.001 270 77.211 270 73.774 L 270 26.228 Z" style="fill:rgb(79,79,81);"/>
  <path d="M 530 26.001 C 530 22.69 527.311 20.001 524 20.001 L 296 20.001 C 292.689 20.001 290 22.69 290 26.001 L 290 74.001 C 290 77.312 292.689 80.001 296 80.001 L 524 80.001 C 527.311 80.001 530 77.312 530 74.001 L 530 26.001 Z" style="fill:rgb(19,18,23);"/>
  <path d="M 790 26.001 C 790 22.69 787.311 20.001 784 20.001 L 555.999 20.001 C 552.688 20.001 549.999 22.69 549.999 26.001 L 549.999 74.001 C 549.999 77.312 552.688 80.001 555.999 80.001 L 784 80.001 C 787.311 80.001 790 77.312 790 74.001 L 790 26.001 Z" style="fill:rgb(19,18,23);"/>
  <path d="M 1050.001 26.001 C 1050.001 22.69 1047.312 20.001 1044.001 20.001 L 816.001 20.001 C 812.69 20.001 810.001 22.69 810.001 26.001 L 810.001 74.001 C 810.001 77.312 812.69 80.001 816.001 80.001 L 1044.001 80.001 C 1047.312 80.001 1050.001 77.312 1050.001 74.001 L 1050.001 26.001 Z" style="fill:rgb(19,18,23);"/>
  <path d="M 1310 26.001 C 1310 22.69 1307.311 20.001 1304 20.001 L 1076 20.001 C 1072.689 20.001 1070 22.69 1070 26.001 L 1070 74.001 C 1070 77.312 1072.689 80.001 1076 80.001 L 1304 80.001 C 1307.311 80.001 1310 77.312 1310 74.001 L 1310 26.001 Z" style="fill:rgb(19,18,23);"/>
  <path d="M 1570 26.001 C 1570 22.69 1567.311 20.001 1564 20.001 L 1335.999 20.001 C 1332.688 20.001 1329.999 22.69 1329.999 26.001 L 1329.999 74.001 C 1329.999 77.312 1332.688 80.001 1335.999 80.001 L 1564 80.001 C 1567.311 80.001 1570 77.312 1570 74.001 L 1570 26.001 Z" style="fill:rgb(19,18,23);"/>
</svg>